<svg xmlns="http://www.w3.org/2000/svg" viewBox="0 0 800 600" role="img" aria-labelledby="t">
  <title id="t">Direction 2: Warm Sovereign</title>
  <rect width="800" height="600" fill="#F5F0E8"/>
  <rect width="800" height="80" fill="#3D2B1F"/>
  <text x="40" y="50" font-family="sans-serif" font-size="28" font-weight="700" fill="#F5F0E8" letter-spacing="2">WARM SOVEREIGN</text>
  <g fill="#3D2B1F" transform="translate(60, 140) scale(0.4)">
    <path fill-rule="evenodd" d="M124 60 H156 V204 H124 Z M156 96 L156 148 L232 44 Z M156 152 L156 204 L232 208 Z"/>
    <path d="M140 28 L152 40 L140 52 L128 40 Z"/>
  </g>
  <text x="160" y="215" font-family="sans-serif" font-size="48" font-weight="700" fill="#3D2B1F" letter-spacing="3">KHATIM</text>
  <text x="160" y="280" font-family="sans-serif" font-size="42" font-weight="700" fill="#3D2B1F" letter-spacing="2">خاتم</text>
  <rect x="60" y="340" width="60" height="60" fill="#3D2B1F" rx="4"/>
  <text x="60" y="420" font-family="sans-serif" font-size="10" fill="#3D2B1F">Umber #3D2B1F</text>
  <rect x="140" y="340" width="60" height="60" fill="#C4703A" rx="4"/>
  <text x="140" y="420" font-family="sans-serif" font-size="10" fill="#3D2B1F">Terracotta #C4703A</text>
  <rect x="220" y="340" width="60" height="60" fill="#F5F0E8" rx="4" stroke="#3D2B1F" stroke-width="1"/>
  <text x="220" y="420" font-family="sans-serif" font-size="10" fill="#3D2B1F">Cream #F5F0E8</text>
  <text x="60" y="480" font-family="sans-serif" font-size="14" fill="#3D2B1F">Type: IBM Plex Sans + IBM Plex Arabic</text>
  <text x="60" y="510" font-family="sans-serif" font-size="12" fill="#A8A29E">FONT PLACEHOLDER — DO NOT SHIP</text>
  <rect x="400" y="140" width="340" height="200" rx="8" fill="#FFFFFF"/>
  <rect x="400" y="140" width="340" height="40" rx="8" fill="#3D2B1F"/>
  <text x="420" y="168" font-family="sans-serif" font-size="14" font-weight="600" fill="#F5F0E8">Verification Status</text>
  <circle cx="430" cy="210" r="6" fill="#C4703A"/>
  <text x="450" y="215" font-family="sans-serif" font-size="12" fill="#3D2B1F">Document attested</text>
  <circle cx="430" cy="240" r="6" fill="#D6D3D1"/>
  <text x="450" y="245" font-family="sans-serif" font-size="12" fill="#A8A29E">Pending witness</text>
  <rect x="420" y="280" width="120" height="32" rx="4" fill="#C4703A"/>
  <text x="480" y="301" text-anchor="middle" font-family="sans-serif" font-size="12" font-weight="600" fill="#FFFFFF">Attest Now</text>
</svg>